<svg xmlns="http://www.w3.org/2000/svg" viewBox="0 0 26.84 28.45"><defs><style>.cls-1{fill:#f05f40;}.cls-2{fill:none;stroke:#f05f40;stroke-miterlimit:10;}</style></defs><title>athletics</title><g id="Layer_2" data-name="Layer 2"><g id="Layer_1-2" data-name="Layer 1"><circle class="cls-1" cx="13.93" cy="4.17" r="3.67"/><path class="cls-1" d="M13.93,1a3.17,3.17,0,1,1-3.17,3.17A3.17,3.17,0,0,1,13.93,1m0-1A4.17,4.17,0,1,0,18.1,4.17,4.17,4.17,0,0,0,13.93,0Z"/><path class="cls-2" d="M2.61,14.3,6.18,9.53h8.1l-.28.4L7.89,18.66l-.28.4h8.1l-4.77,7.15"/><polyline class="cls-2" points="0.22 28 7.37 24.43 7.37 20.85"/><polyline class="cls-2" points="26.44 4.77 22.86 9.53 16.9 9.53"/></g></g></svg>