<?xml version="1.0" encoding="utf-8"?>
<!-- Generator: Adobe Illustrator 21.1.0, SVG Export Plug-In . SVG Version: 6.00 Build 0)  -->
<svg version="1.1" xmlns="http://www.w3.org/2000/svg" xmlns:xlink="http://www.w3.org/1999/xlink" x="0px" y="0px"
	 viewBox="0 0 32 32" style="enable-background:new 0 0 32 32;" xml:space="preserve">
<style type="text/css">
	.st0{fill:#F05F40;stroke:#F05F40;stroke-miterlimit:10;}
	.st1{fill:#F8F8F8;stroke:#F05F40;stroke-width:0.25;stroke-miterlimit:10;}
</style>
<g id="sad">
</g>
<g id="happy">
	<g>
		<g>
			<path class="st0" d="M13.7,13.9c0.1,9.5,4,17.2,8.8,17.2c4.9,0,8.8-7.8,8.8-17.5c0-0.4,0-0.8,0-1.1C25.3,11.2,20,13.5,13.7,13.9z
				"/>
			<ellipse class="st1" cx="17.9" cy="18.7" rx="1.9" ry="1"/>
			<ellipse class="st1" cx="27.1" cy="18.7" rx="1.9" ry="1"/>
			<path class="st1" d="M27.7,27.4c-0.2-2.3-2.4-4.2-5.2-4.2c-2.8,0-5,1.9-5.2,4.2C20.5,27.4,24.5,27.4,27.7,27.4z"/>
		</g>
		<g>
			<path class="st0" d="M0.6,2.8c0.1,9.5,4,17.2,8.8,17.2c4.9,0,8.8-7.8,8.8-17.5c0-0.4,0-0.8,0-1.1C12.2,0,6.9,2.3,0.6,2.8z"/>
			<ellipse class="st1" cx="4.9" cy="7.6" rx="1.9" ry="1"/>
			<ellipse class="st1" cx="14" cy="7.6" rx="1.9" ry="1"/>
			<path class="st1" d="M4.3,13.3c0.2,2.3,2.4,4.2,5.2,4.2c2.8,0,5-1.9,5.2-4.2C11.5,13.3,7.5,13.3,4.3,13.3z"/>
		</g>
	</g>
</g>
</svg>
