<svg xmlns="http://www.w3.org/2000/svg" viewBox="0 0 22 25.77"><defs><style>.cls-1{fill:#f05f40;}</style></defs><title>food</title><g id="Layer_2" data-name="Layer 2"><g id="food"><path class="cls-1" d="M7.22,5.56a.58.58,0,0,1-1.16,0L5.49,0,4.91,5.56a.55.55,0,0,1-.58.5.55.55,0,0,1-.58-.5L3.18,0,2.6,5.56a.55.55,0,0,1-.58.5.55.55,0,0,1-.58-.5S0-.35,0,0v6.3a2.19,2.19,0,0,0,2.31,2h1.1C2.22,12.81,1.35,24.16,1.35,24.16c0,.88,1.34,1.6,3,1.6s3-.72,3-1.6c0,0-.86-11.35-2.05-15.83h1.1a2.19,2.19,0,0,0,2.31-2V0C8.67-.35,7.22,5.56,7.22,5.56Z"/><path class="cls-1" d="M22,4.55C22,2,20.45,0,18.53,0s-3.47,2-3.47,4.54a4.56,4.56,0,0,0,2.41,4.3c-1.12,4.78-1.92,15.31-1.92,15.31,0,.88,1.34,1.6,3,1.6s3-.72,3-1.6c0,0-.8-10.53-1.92-15.31A4.56,4.56,0,0,0,22,4.55Z"/></g></g></svg>