<svg xmlns="http://www.w3.org/2000/svg" viewBox="0 0 30.63 26.07"><defs><style>.cls-1{fill:#f05f40;}.cls-1,.cls-2{stroke:#f05f40;stroke-miterlimit:10;}.cls-2{fill:none;}</style></defs><title>outdoors</title><g id="Layer_2" data-name="Layer 2"><g id="lines"><path class="cls-1" d="M27.75,13.3a2,2,0,0,0-.48.06,2.47,2.47,0,0,0-4.87.56s0,0,0,.07h0c-1.68,0-3,1.07-3,2.4s1.36,2.4,3,2.4a3.74,3.74,0,0,0,1.13-.17.51.51,0,0,0,0,.17c0,.5.77.91,1.71.91s1.62-.37,1.7-.84a2,2,0,0,0,.84.19,2.66,2.66,0,0,0,2.38-2.88A2.66,2.66,0,0,0,27.75,13.3Zm-3,4.61a2.15,2.15,0,0,0,.68-1.28,3.17,3.17,0,0,0,.48,1.32,3,3,0,0,0-.68-.07A3.08,3.08,0,0,0,24.73,17.91Z"/><path class="cls-2" d="M23.49,19.05c0,3.6-1.22,6.52-2.74,6.52"/><path class="cls-2" d="M26.92,19.26c0,3.49.86,6.31,1.92,6.31"/><path class="cls-1" d="M19.25,8.61c0-1.35-1.24-2.5-3-3a2.45,2.45,0,0,0,1-1.86C17.25,1.94,14.8.5,11.77.5A6.76,6.76,0,0,0,7,2.12c-.11,0-.22,0-.33,0C4.33,2.08,2.4,4.3,2.4,7c0,.07,0,.13,0,.19A2.54,2.54,0,0,0,.5,9.51C.5,10.87,1.89,12,3.61,12a3.69,3.69,0,0,0,1.55-.34A3.81,3.81,0,0,0,6.71,12a3.79,3.79,0,0,0,.78-.09,1.32,1.32,0,0,0,0,.25c0,1.19,1.6,2.16,3.58,2.16s3.58-1,3.58-2.16a1.31,1.31,0,0,0,0-.2C17.21,11.75,19.25,10.34,19.25,8.61Z"/><path class="cls-2" d="M7.49,11.89c0,7.56-1.57,13.68-3.52,13.68"/><path class="cls-2" d="M14.58,11.94c0,7.53,1.38,13.63,3.09,13.63"/></g></g></svg>