<svg id="Layer_1" data-name="Layer 1" xmlns="http://www.w3.org/2000/svg" viewBox="0 0 32 32"><defs><style>.cls-1{fill:#f05f40;}.cls-2{fill:#f8f8f8;}</style></defs><title>spiritual</title><path class="cls-1" d="M10.63,30A15,15,0,0,1,16,1a7.25,7.25,0,0,1,0,14.5A8.25,8.25,0,0,0,10.63,30Z"/><path class="cls-1" d="M16,1.5A6.75,6.75,0,0,1,16,15,8.75,8.75,0,0,0,8.65,28.5,14.5,14.5,0,0,1,16,1.5m0-1a15.5,15.5,0,0,0,0,31A7.75,7.75,0,0,1,16,16,7.75,7.75,0,0,0,16,.5Z"/><path class="cls-1" d="M23.35,3.5A14.5,14.5,0,0,1,16,30.5,6.75,6.75,0,0,1,16,17,8.75,8.75,0,0,0,23.35,3.5M16,.5A7.75,7.75,0,0,1,16,16a7.75,7.75,0,0,0,0,15.5,15.5,15.5,0,0,0,0-31Z"/><circle class="cls-2" cx="16" cy="7.77" r="2.89"/><path class="cls-2" d="M16,5.37a2.39,2.39,0,1,1-2.39,2.39A2.39,2.39,0,0,1,16,5.37m0-1a3.39,3.39,0,1,0,3.39,3.39A3.39,3.39,0,0,0,16,4.37Z"/><circle class="cls-1" cx="16" cy="24.23" r="2.89"/><path class="cls-1" d="M16,21.84a2.39,2.39,0,1,1-2.39,2.39A2.39,2.39,0,0,1,16,21.84m0-1a3.39,3.39,0,1,0,3.39,3.39A3.39,3.39,0,0,0,16,20.84Z"/></svg>