<?xml version="1.0" encoding="utf-8"?>
<!-- Generator: Adobe Illustrator 21.1.0, SVG Export Plug-In . SVG Version: 6.00 Build 0)  -->
<svg version="1.1" id="Layer_1" xmlns="http://www.w3.org/2000/svg" xmlns:xlink="http://www.w3.org/1999/xlink" x="0px" y="0px"
	 viewBox="0 0 32 32" style="enable-background:new 0 0 32 32;" xml:space="preserve">
<style type="text/css">
	.st0{fill:none;stroke:#333333;stroke-miterlimit:10;}
</style>
<g>
	<path class="st0" d="M27.7,8C29,8,30,9,30,10.3v10.4c0,1.3-1,2.3-2.3,2.3H4.3C3,23,2,22,2,20.7V10.3C2,9,3,8,4.3,8H27.7 M27.7,7
		H4.3C2.5,7,1,8.5,1,10.3v10.4C1,22.5,2.5,24,4.3,24h23.4c1.8,0,3.3-1.5,3.3-3.3V10.3C31,8.5,29.5,7,27.7,7L27.7,7z"/>
</g>
<g>
	<line class="st0" x1="1.5" y1="11.5" x2="30.5" y2="11.5"/>
</g>
<line class="st0" x1="1.5" y1="10.5" x2="30.5" y2="10.5"/>
<line class="st0" x1="3.5" y1="18.5" x2="8.5" y2="18.5"/>
<line class="st0" x1="9" y1="18.5" x2="11.5" y2="18.5"/>
<line class="st0" x1="3.5" y1="20.5" x2="13.5" y2="20.5"/>
</svg>
