<?xml version="1.0" encoding="utf-8"?>
<!-- Generator: Adobe Illustrator 21.1.0, SVG Export Plug-In . SVG Version: 6.00 Build 0)  -->
<svg version="1.1" id="Layer_2" xmlns="http://www.w3.org/2000/svg" xmlns:xlink="http://www.w3.org/1999/xlink" x="0px" y="0px"
	 viewBox="0 0 32 32" style="enable-background:new 0 0 32 32;" xml:space="preserve">
<style type="text/css">
	.st0{fill:#F05F40;}
	.st1{fill:none;stroke:#F05F40;stroke-miterlimit:10;}
</style>
<g>
	<circle class="st0" cx="15.4" cy="24.5" r="2"/>
	<path class="st0" d="M15.4,23.1c0.8,0,1.5,0.7,1.5,1.5S16.2,26,15.4,26S14,25.3,14,24.5S14.6,23.1,15.4,23.1 M15.4,22.1
		c-1.4,0-2.5,1.1-2.5,2.5s1.1,2.5,2.5,2.5s2.5-1.1,2.5-2.5S16.8,22.1,15.4,22.1L15.4,22.1z"/>
</g>
<path class="st1" d="M11.7,20.9c0.2-0.3,0.6-0.8,1.3-1.2c0.3-0.2,1-0.5,2-0.6c0.3,0,1.5-0.1,2.7,0.6c0.7,0.4,1.1,0.9,1.3,1.2"/>
<path class="st1" d="M9.1,19.4c0.3-0.6,1-1.6,2.2-2.4c0.5-0.4,1.7-1.1,3.3-1.2c0.6,0,2.5-0.1,4.5,1.2c1.2,0.8,1.9,1.8,2.2,2.4"/>
<path class="st1" d="M6.6,17c0.5-0.8,1.5-2.1,3.1-3.3c0.7-0.5,2.4-1.4,4.7-1.6c0.8-0.1,3.5-0.2,6.2,1.6c1.7,1.1,2.6,2.4,3.1,3.3"/>
<path class="st1" d="M4,14.5c0.6-1,1.9-2.7,4-4.1c1-0.6,3.1-1.8,6-2c1-0.1,4.5-0.2,8,2c2.1,1.4,3.4,3.1,4,4.1"/>
<path class="st1" d="M2,12c0.8-1.2,2.3-3.2,4.9-4.9c1.2-0.7,3.8-2.2,7.4-2.4c1.3-0.1,5.5-0.3,9.8,2.4c2.6,1.6,4.1,3.7,4.9,4.9"/>
</svg>
