<?xml version="1.0" encoding="utf-8"?>
<!-- Generator: Adobe Illustrator 21.1.0, SVG Export Plug-In . SVG Version: 6.00 Build 0)  -->
<svg version="1.1" xmlns="http://www.w3.org/2000/svg" xmlns:xlink="http://www.w3.org/1999/xlink" x="0px" y="0px"
	 viewBox="0 0 32 32" style="enable-background:new 0 0 32 32;" xml:space="preserve">
<style type="text/css">
	.st0{fill:#F8F8F8;}
</style>
<g id="block">
</g>
<g id="lines">
	<g>
		<rect x="11" class="st0" width="10" height="9"/>
		<rect x="11" y="11" class="st0" width="10" height="10"/>
		<path class="st0" d="M23,9h9V5.8C32,2.6,29.4,0,26.2,0H23V9z"/>
		<rect y="11" class="st0" width="9" height="10"/>
		<path class="st0" d="M23,23v9h3.2c3.2,0,5.8-2.6,5.8-5.8V23H23z"/>
		<path class="st0" d="M9,9V0H5.8C2.6,0,0,2.6,0,5.8V9H9z"/>
		<path class="st0" d="M9,23H0v3.2C0,29.4,2.6,32,5.8,32H9V23z"/>
		<rect x="11" y="23" class="st0" width="10" height="9"/>
		<rect x="23" y="11" class="st0" width="9" height="10"/>
	</g>
</g>
</svg>
