<svg id="Layer_1" data-name="Layer 1" xmlns="http://www.w3.org/2000/svg" width="32" height="32" viewBox="0 0 32 32"><defs><style>.icon-img__pin-unfilled-cavity{fill:none;}.icon-img__pin-unfilled{fill:#fff;}</style></defs><title>img</title><polygon class="icon-img__pin-unfilled-cavity" points="22.55 9.43 18.71 5.59 15.08 9.31 17.99 12.22 13.6 15.22 15.18 16.8 16.9 18.52 19.96 14.18 22.69 16.92 26.41 13.29 22.55 9.43"/><path class="icon-img__pin-unfilled" d="M23.76,8.22L18.9,3.36,12.68,9.58,15.11,12l-4,3,2.14,2.14L6.55,23.81v1.63H8.17l6.69-6.69L17,20.89l3-4L22.4,19.3l6.23-6.23Zm-3.8,6L16.9,18.52,15.18,16.8,13.6,15.22l4.39-3L15.08,9.31l3.62-3.72,3.84,3.84,3.86,3.86-3.72,3.62Z"/></svg>
