<?xml version="1.0" encoding="utf-8"?>
<!-- Generator: Adobe Illustrator 21.0.2, SVG Export Plug-In . SVG Version: 6.00 Build 0)  -->
<svg version="1.1" id="Layer_1" xmlns="http://www.w3.org/2000/svg" xmlns:xlink="http://www.w3.org/1999/xlink" x="0px" y="0px"
	 viewBox="0 0 577.2 204.9" style="enable-background:new 0 0 577.2 204.9;" xml:space="preserve">
<style type="text/css">
	.st0{fill:#FF4B15;}
</style>
<title>wandr-logo</title>
<g id="G6TdPo">
	<g>
		<path class="st0" d="M501.3,140.3c-3.8,9.7-7.2,19.3-11.3,28.5c-4.6,10.4-10,20.5-18.8,28c-3.5,2.9-7.7,5.6-12,6.7
			c-11.7,2.9-19.3-2.3-22.1-14.1c-0.3-1.2-0.5-2.5-1-5.4c-6.2,15-16.1,22.3-31.2,19.6c-11.5-2-16.7-10.6-19-22
			c-2.8,3.7-4.9,7.3-7.8,10.1c-3.9,3.8-7.9,7.9-12.7,10.2c-12.7,6.4-24.7,0-26.4-14c-1-8.6-0.9-17.3-1.4-25.9c0-3.2-0.4-6.3-1.2-9.4
			c-1.6-5.5-5.5-6.4-9.1-2c-2.6,3.2-4.8,6.8-6.3,10.7c-3.8,10.1-7.1,20.4-10.6,30.6c-3.3,9.7-8.6,13.4-18.7,12.9
			c-5.6-0.3-7.8-2.6-7.8-8.1c0-7.5,0-15,0-23.3c-1.5,2.7-2.8,5-4.1,7.3c-4.5,7.7-9.7,14.8-17.2,19.8c-5.2,3.5-11.7,4.6-17.7,3
			c-8.9-2-11-9.3-12.5-17.8c-1.5,2.5-2.6,4.4-3.8,6.2c-5.8,8.5-13.9,12.6-24.3,12.1c-9.4-0.5-16-5.3-19.9-13.6
			c-3.5-7.4-3.1-15.3-1.9-23.1c2.1-13.9,7.1-26.3,19-35c8.9-6.4,18.5-6.9,28.5-3.4c4.9,1.7,7.6,5.6,9.1,10.5c0.7,1.8,2.2,3.2,4,3.9
			c11.5,2.8,14.8,6.6,14.6,18.3c-0.1,5.2-0.2,10.3,0.1,15.5c0.1,1.8,1.1,4.5,2.4,4.9c1.6,0.6,4.2-0.2,5.8-1.2
			c2.3-1.6,4.3-3.7,5.7-6.1c4.8-8.8,9.1-18,14-26.8c1.9-3.4,4.3-6.9,7.5-8.9c6.2-3.9,13-0.6,14.5,6.5c0.9,4.1,1.1,8.4,1.6,13
			c2.8-6.1,5.1-12,8.2-17.6c5.9-10.8,15.5-15.2,27.5-14.2c7.2,0.6,11.9,4.7,14.6,11.2c3.9,9.6,4.5,19.7,3.9,29.9
			c-0.3,3.3-0.2,6.6,0.2,9.9c0.9,5.4,4.5,6.8,8.4,2.9c4-4,7.5-8.5,10.4-13.3c4.3-7.3,7.2-15.4,11.8-22.5c3.5-5.4,8-10.1,13.3-13.9
			c9.4-6.7,18.4-5.4,28,2.9c1-7.1,1.8-13.9,3-20.7c4.6-26.1,9.3-52.1,14.1-78.2c1.1-6.2,2.3-7.1,8.4-6.2c4.6,0.7,9.2,1.7,13.7,2.8
			c5.3,1.2,5.9,2.5,4.6,7.8c-4,17.2-8.6,34.2-11.8,51.6c-5.1,28.3-6.6,56.9-5.8,85.6c0.1,2,1.4,5,2.9,5.6s5-0.5,6.1-2
			c5.6-7.8,10.8-15.9,15.9-24c1.5-2.6,2.7-5.4,3.4-8.3c1.1-3.8,1.1-7.2-2-10.6c-6.5-7.2-5.5-19.7,1.6-26.3c3.3-3.1,7-3.5,11.1-2.4
			s5.7,4.3,6.4,8.1c0.4,2,0.5,4,0.3,6c-0.9,5.8,2,8.7,7.2,10.1c5.6,1.5,11.2,3,16.8,4.9c8.4,2.8,10.1,5.7,9.8,14.4
			c-0.3,7.7-0.5,15.3-0.2,23c0.1,2.5,1.9,5,2.9,7.5c2.6-1.2,6.2-1.6,7.6-3.6c6-8.8,11.3-17.9,16.9-27c0.9-1.4,1.1-3.4,2.2-4.4
			c1.4-1.1,3.4-1.2,5.2-1.8c0.3,1.6,1.3,3.4,0.9,4.7c-5.2,15.2-11.6,29.8-22,42.2c-6.1,7.2-13.3,12.5-23.7,11.3
			c-6.9-0.8-12.1-4.1-13.3-10.8c-1.7-9.6-2.1-19.4-3-29.2c-0.2-2.8,0-5.7,0-8.5C514.9,144.4,512.4,141.7,501.3,140.3z M235.7,148.4
			c-1.8-0.5-4.1-2.2-5.9-1.6c-4.6,1.4-10,2.7-13.2,5.8c-7.8,7.6-9.5,17.7-8.3,28.2c0.7,5.7,4.8,7.5,9.8,4.6
			c6.9-3.8,10.3-10.3,12.4-17.4C232.4,161.9,233.8,155.6,235.7,148.4L235.7,148.4z M435.5,147.1c-5.7-0.6-9.2,0.4-13.2,3.6
			c-6.9,5.7-9.5,13.6-10.2,22c-0.4,4.8-1.6,10.4,3.7,13.5c3.4,2,9.7-1.8,14-7.6C436.8,169,435.9,158,435.5,147.1L435.5,147.1z
			 M460.4,36.5c-2.1,11.8-4.1,22.7-6,33.6c-1.3,7.5-1,7.9,7.2,9.1l9.7-40.6L460.4,36.5z"/>
		<path class="st0" d="M91.4,175c-5.3,9.6-11.5,17.7-20.6,23.2C49,211.6,24.9,203,17.4,178.6c-2-6.4-3.1-12.9-3.4-19.6
			c-0.4-11.8,0.1-23.6,0.3-35.4c0-3.2,0-6.3,0.2-9.5C14.9,107,12,102,5.5,99c-3.2-1.5-6-3.5-5.4-8c0.7-4.8,2.8-8.2,7.6-9.4
			c10.6-2.8,27.2,0.1,32.2,16.3c1.9,6.7,3,13.6,3.1,20.6c0.3,11.6-0.8,23.3-0.4,34.9c0.2,6.8,1.4,13.6,3.6,20
			c3.6,10.3,13.2,12.8,22.2,6.6c7.3-5,11.9-12.4,14.3-20.6c2.8-10.1,4.9-20.3,6.3-30.6c1-6.6,0.6-13.3,1-19.9
			c0.5-6.8,4.4-12.1,9.6-13.2c6.7-1.5,13.2,1.2,15.8,8.3c2.1,6.2,3.3,12.8,3.4,19.4c0.3,10.6-0.8,21.3-0.5,32
			c0.1,6,1.2,11.9,3.1,17.6c3.9,11.2,14.3,13.8,23.5,6.2c2.4-1.8,4.5-4,6.2-6.4c13.6-20.9,19.6-43.5,13.9-68.4
			c-1-4.5-3.2-8.8-4.4-13.2c-0.5-1.7-0.4-4.7,0.6-5.5c1.4-1,4.2-1,6-0.3c6.1,2.3,9,7.6,11.1,13.3c4,10.7,4.8,21.8,3.7,33
			c-1.7,19-6.9,37-18.9,52.3c-10.6,13.5-23.9,22-42.1,20.2c-12.3-1.2-20.5-7.9-25.5-18.8C93.9,182,92.8,178.7,91.4,175z"/>
		<path class="st0" d="M484.4,3.8c-2.1,6.1-3.8,11.3-5.9,16.3c-0.4,1-3.1,2.1-4,1.6c-1.3-0.6-3-2.9-2.7-3.9
			c1.5-5.6,3.4-11.1,5.5-16.4c0.3-0.8,2.9-1.7,3.7-1.2C482.5,0.9,483.4,2.7,484.4,3.8z"/>
		<path class="st0" d="M508.3,28.4c-0.5,0.7-0.9,2.1-1.9,2.7c-3.6,2.4-7.3,4.5-11.2,6.2c-1.2,0.5-3.8-0.7-4.7-2
			c-0.6-0.9,0.1-3.8,1.1-4.5c3.5-2.4,7.3-4.5,11.3-6.2C505.4,23.5,507.9,24.3,508.3,28.4z"/>
		<path class="st0" d="M456.8,15.8c-0.9,0.8-2.2,3.1-3.4,3c-1.9-0.3-3.6-1.5-4.4-3.2c-1.1-3.3-1.6-6.8-1.6-10.2
			c0-1.5,1.7-3.1,2.7-4.6c1.6,1.1,4.1,1.8,4.6,3.2C455.8,7.3,456,11.1,456.8,15.8z"/>
		<path class="st0" d="M435.8,22.1c3,3,6.6,5.7,8.9,9.2c1.4,2.2-2.4,5.4-4.9,4c-3-1.8-5.7-4-7.9-6.6C430,26.5,432,23,435.8,22.1z"/>
	</g>
</g>
</svg>
